<?xml version="1.0" encoding="utf-8"?>
<!-- Generator: Adobe Illustrator 28.0.0, SVG Export Plug-In . SVG Version: 6.00 Build 0)  -->
<svg version="1.1" id="Layer_1" xmlns="http://www.w3.org/2000/svg" x="0px" y="0px"
     width="500px" height="500px" viewBox="0 0 500 500" style="enable-background:new 0 0 500 500;" xml:space="preserve">
<style type="text/css">
	.st0{fill:#FFFFFF;}
	.st1{fill:url(#SVGID_1_);}
	.st2{fill:url(#SVGID_00000150781532822990934640000018243174521020622477_);}
	.st3{fill:url(#SVGID_00000106861777552094617190000001805609398083600540_);}
	.st4{fill:url(#SVGID_00000181078197362197875950000015444403932444347815_);}
	.st5{fill:none;stroke:#F70000;stroke-miterlimit:10;}
	.st6{fill:none;stroke:#FF0000;stroke-width:0.25;stroke-miterlimit:10;}
	.st7{fill:none;}
</style>
<g>
	<g>
		<path class="st0" d="M41.5,494c-2.6,0-5.1-0.5-7.4-1.5c-2.3-1-4.4-2.4-6.1-4.1c-1.8-1.7-3.1-3.8-4.2-6.1c-1-2.3-1.5-4.8-1.5-7.5
			c0-2.6,0.5-5.1,1.5-7.4s2.4-4.4,4.1-6.1c1.7-1.8,3.8-3.1,6.1-4.2c2.3-1,4.8-1.5,7.5-1.5c3.1,0,6,0.7,8.7,2
			c2.4,1.2,4.5,2.9,6.3,5.1c0.3,0.3,0.2,0.8-0.2,1l-5.7,3.9c-0.3,0.2-0.7,0.1-1-0.2c-0.8-1.1-1.8-2-3.1-2.8c-1.5-0.9-3.2-1.4-5-1.4
			c-1.6,0-3,0.3-4.3,0.9s-2.4,1.5-3.4,2.5c-0.9,1.1-1.7,2.3-2.2,3.7c-0.5,1.4-0.8,2.9-0.8,4.4c0,1.6,0.3,3,0.8,4.4s1.2,2.6,2.2,3.7
			c0.9,1.1,2.1,1.9,3.4,2.5c1.3,0.6,2.7,0.9,4.3,0.9c1.8,0,3.4-0.4,4.9-1.2c1.3-0.7,2.4-1.7,3.2-2.9c0.2-0.3,0.6-0.4,0.9-0.2
			l5.9,3.5c0.4,0.2,0.5,0.7,0.2,1c-0.8,1-1.7,1.9-2.6,2.7c-1.2,1-2.4,1.9-3.8,2.5c-1.4,0.7-2.8,1.2-4.3,1.6
			C44.6,493.8,43.1,494,41.5,494z"/>
		<path class="st0" d="M78.9,457.2v35c0,0.4-0.3,0.7-0.7,0.7h-6.8c-0.4,0-0.7-0.3-0.7-0.7v-35c0-0.4,0.3-0.7,0.7-0.7h6.8
			C78.6,456.5,78.9,456.8,78.9,457.2z"/>
		<path class="st0" d="M112.2,456.5c1.8,0,3.4,0.3,5,1s3,1.6,4.1,2.8c1.2,1.2,2.1,2.6,2.8,4.1s1,3.3,1,5.1c0,1.8-0.3,3.5-1,5
			c-0.7,1.6-1.6,3-2.8,4.2c-1.2,1.2-2.6,2.1-4.1,2.8c-1.6,0.7-3.3,1-5.1,1h-7.5c-0.4,0-0.7,0.3-0.7,0.7v8.9c0,0.4-0.3,0.7-0.7,0.7
			h-6.9c-0.4,0-0.7-0.3-0.7-0.7v-35c0-0.4,0.3-0.7,0.7-0.7h15.9V456.5z M110.8,475.3c0.8,0,1.5-0.2,2.2-0.5s1.3-0.7,1.8-1.2
			s0.9-1.1,1.2-1.8c0.3-0.7,0.4-1.4,0.4-2.2c0-0.8-0.1-1.5-0.4-2.2s-0.7-1.3-1.2-1.8s-1.1-0.9-1.8-1.2c-0.7-0.3-1.4-0.4-2.2-0.4
			h-6.1c-0.4,0-0.7,0.3-0.7,0.7v10.1c0,0.4,0.3,0.7,0.7,0.7h6.1V475.3z"/>
		<path class="st0" d="M147.3,479.1v13.2c0,0.4-0.3,0.7-0.7,0.7h-6.9c-0.4,0-0.7-0.3-0.7-0.7v-35c0-0.4,0.3-0.7,0.7-0.7h6.9
			c0.4,0,0.7,0.3,0.7,0.7v13.2c0,0.4,0.3,0.7,0.7,0.7h11.9c0.4,0,0.7-0.3,0.7-0.7v-13.2c0-0.4,0.3-0.7,0.7-0.7h6.9
			c0.4,0,0.7,0.3,0.7,0.7v35c0,0.4-0.3,0.7-0.7,0.7h-6.9c-0.4,0-0.7-0.3-0.7-0.7v-13.2c0-0.4-0.3-0.7-0.7-0.7H148
			C147.6,478.4,147.3,478.7,147.3,479.1z"/>
		<path class="st0" d="M210.7,492.9h-24c-0.4,0-0.7-0.3-0.7-0.7v-35c0-0.4,0.3-0.7,0.7-0.7h22.7c0.4,0,0.7,0.3,0.7,0.7v5.9
			c0,0.4-0.3,0.7-0.7,0.7H195c-0.4,0-0.7,0.3-0.7,0.7v5.9c0,0.4,0.3,0.7,0.7,0.7h8.8c0.4,0,0.7,0.3,0.7,0.7v5.9
			c0,0.4-0.3,0.7-0.7,0.7H195c-0.4,0-0.7,0.3-0.7,0.7v5.9c0,0.4,0.3,0.7,0.7,0.7h15.7c0.4,0,0.7,0.3,0.7,0.7v5.9
			C211.4,492.6,211.1,492.9,210.7,492.9z"/>
		<path class="st0" d="M253.7,469.1c0,1.4-0.2,2.6-0.6,3.8c-0.4,1.2-1,2.3-1.7,3.4c-0.7,1-1.6,2-2.6,2.7c-0.8,0.6-1.6,1.1-2.4,1.5
			c-0.4,0.2-0.6,0.7-0.3,1.1l8.7,10.1c0.4,0.5,0.1,1.2-0.5,1.2H246c-0.2,0-0.4-0.1-0.5-0.2l-9.2-10.7c-0.1-0.2-0.3-0.2-0.5-0.2H235
			c-0.4,0-0.7,0.3-0.7,0.7v9.8c0,0.4-0.3,0.7-0.7,0.7h-6.9c-0.4,0-0.7-0.3-0.7-0.7v-35c0-0.4,0.3-0.7,0.7-0.7h14.5
			c1.7,0,3.4,0.3,4.9,1s2.9,1.6,4,2.7s2,2.5,2.7,4S253.7,467.3,253.7,469.1z M239.8,463.8h-4.9c-0.4,0-0.7,0.3-0.7,0.7v9.2
			c0,0.4,0.3,0.7,0.7,0.7h4.9c0.7,0,1.4-0.1,2.1-0.4c0.6-0.3,1.2-0.7,1.7-1.1c0.5-0.5,0.9-1,1.1-1.7c0.3-0.6,0.4-1.3,0.4-2.1
			c0-0.7-0.1-1.4-0.4-2.1c-0.3-0.6-0.7-1.2-1.1-1.7c-0.5-0.5-1-0.9-1.7-1.1C241.2,463.9,240.5,463.8,239.8,463.8z"/>
		<path class="st0" d="M277.8,480.8v11.4c0,0.4-0.3,0.7-0.7,0.7h-6.9c-0.4,0-0.7-0.3-0.7-0.7v-35c0-0.4,0.3-0.7,0.7-0.7h23.2
			c0.4,0,0.7,0.3,0.7,0.7v5.9c0,0.4-0.3,0.7-0.7,0.7h-14.9c-0.4,0-0.7,0.3-0.7,0.7v7.6c0,0.4,0.3,0.7,0.7,0.7h10.1
			c0.4,0,0.7,0.3,0.7,0.7v5.9c0,0.4-0.3,0.7-0.7,0.7h-10.1C278.1,480.1,277.8,480.5,277.8,480.8z"/>
		<path class="st0" d="M304.5,474.7c0-2.6,0.5-5.1,1.6-7.5s2.4-4.4,4.2-6.1c1.8-1.7,3.8-3.1,6.1-4.1c2.3-1,4.8-1.5,7.4-1.5
			s5.1,0.5,7.5,1.6c2.3,1,4.4,2.4,6.1,4.2s3.1,3.8,4.1,6.1c1,2.3,1.5,4.8,1.5,7.3c0,2.6-0.5,5.1-1.6,7.4s-2.4,4.4-4.2,6.1
			c-1.8,1.8-3.8,3.1-6.1,4.2s-4.8,1.5-7.3,1.5c-2.7,0-5.2-0.5-7.6-1.6s-4.4-2.5-6.1-4.3s-3.1-3.8-4.1-6.1S304.5,477.2,304.5,474.7z
			 M313.2,474.7c0.1,1.5,0.4,3,0.9,4.4s1.2,2.6,2.2,3.7c0.9,1.1,2,1.9,3.3,2.6c1.3,0.6,2.7,1,4.2,1c1.6,0,3-0.3,4.3-1
			s2.4-1.6,3.4-2.7c0.9-1.1,1.7-2.3,2.2-3.7c0.5-1.4,0.8-2.8,0.8-4.2c0-1.5-0.3-2.9-0.8-4.3s-1.3-2.6-2.2-3.7
			c-1-1.1-2.1-1.9-3.4-2.6c-1.3-0.6-2.7-1-4.2-1c-1.6,0-3,0.3-4.3,1s-2.4,1.6-3.4,2.7c-0.9,1.1-1.7,2.3-2.2,3.7
			C313.5,471.9,313.2,473.3,313.2,474.7z"/>
		<path class="st0" d="M385.8,469.1c0,1.4-0.2,2.6-0.6,3.8c-0.4,1.2-1,2.3-1.7,3.4c-0.7,1-1.6,2-2.6,2.7c-0.8,0.6-1.6,1.1-2.4,1.5
			c-0.4,0.2-0.6,0.7-0.3,1.1l8.7,10.1c0.4,0.5,0.1,1.2-0.5,1.2H378c-0.2,0-0.4-0.1-0.5-0.2l-9.2-10.7c-0.1-0.2-0.3-0.2-0.5-0.2H367
			c-0.4,0-0.7,0.3-0.7,0.7v9.8c0,0.4-0.3,0.7-0.7,0.7h-6.9c-0.4,0-0.7-0.3-0.7-0.7v-35c0-0.4,0.3-0.7,0.7-0.7h14.5
			c1.7,0,3.4,0.3,4.9,1s2.9,1.6,4,2.7s2,2.5,2.7,4C385.4,465.7,385.8,467.3,385.8,469.1z M371.8,463.8H367c-0.4,0-0.7,0.3-0.7,0.7
			v9.2c0,0.4,0.3,0.7,0.7,0.7h4.9c0.7,0,1.4-0.1,2.1-0.4c0.6-0.3,1.2-0.7,1.7-1.1c0.5-0.5,0.9-1,1.1-1.7c0.3-0.6,0.4-1.3,0.4-2.1
			c0-0.7-0.1-1.4-0.4-2.1c-0.3-0.6-0.7-1.2-1.1-1.7s-1-0.9-1.7-1.1C373.2,463.9,372.5,463.8,371.8,463.8z"/>
		<path class="st0" d="M418.2,494c-2.6,0-5.1-0.5-7.4-1.5s-4.4-2.4-6.1-4.1c-1.8-1.7-3.1-3.8-4.2-6.1c-1-2.3-1.5-4.8-1.5-7.5
			c0-2.6,0.5-5.1,1.5-7.4s2.4-4.4,4.1-6.1c1.7-1.8,3.8-3.1,6.1-4.2c2.3-1,4.8-1.5,7.5-1.5c3.1,0,5.9,0.6,8.6,1.9
			c2.4,1.1,4.5,2.8,6.2,5c0.2,0.3,0.2,0.8-0.2,1c-0.3,0.2-0.6,0.4-1,0.7c-0.7,0.5-1.3,0.9-2,1.4s-1.3,0.9-1.9,1.3
			c-0.3,0.2-0.6,0.4-0.8,0.5c-0.3,0.2-0.7,0.1-0.9-0.1c-1-1.2-2.1-2.1-3.3-2.8c-1.4-0.8-2.9-1.2-4.7-1.2c-1.6,0-3,0.3-4.3,0.9
			s-2.4,1.5-3.4,2.5c-0.9,1.1-1.7,2.3-2.2,3.7c-0.5,1.4-0.8,2.9-0.8,4.4c0,1.6,0.3,3,0.8,4.4s1.2,2.6,2.2,3.7
			c0.9,1.1,2.1,1.9,3.4,2.5s2.7,0.9,4.3,0.9c2.3,0,4.2-0.6,5.8-1.9c1.3-1,2.3-2.3,3.1-3.8c0.2-0.5-0.1-1-0.6-1h-7
			c-0.4,0-0.7-0.3-0.7-0.7V473c0-0.4,0.3-0.7,0.7-0.7h16.8c0.4,0,0.7,0.3,0.7,0.7v2.1c0,2.6-0.5,5-1.5,7.3s-2.3,4.3-4,6
			s-3.7,3.1-6,4.1C423.3,493.5,420.8,494,418.2,494z"/>
		<path class="st0" d="M477,492.9h-24c-0.4,0-0.7-0.3-0.7-0.7v-35c0-0.4,0.3-0.7,0.7-0.7h22.7c0.4,0,0.7,0.3,0.7,0.7v5.9
			c0,0.4-0.3,0.7-0.7,0.7h-14.4c-0.4,0-0.7,0.3-0.7,0.7v5.9c0,0.4,0.3,0.7,0.7,0.7h8.8c0.4,0,0.7,0.3,0.7,0.7v5.9
			c0,0.4-0.3,0.7-0.7,0.7h-8.8c-0.4,0-0.7,0.3-0.7,0.7v5.9c0,0.4,0.3,0.7,0.7,0.7H477c0.4,0,0.7,0.3,0.7,0.7v5.9
			C477.7,492.6,477.4,492.9,477,492.9z"/>
	</g>
	<g>
		<g>

				<linearGradient id="SVGID_1_" gradientUnits="userSpaceOnUse" x1="249.5" y1="412.9882" x2="249.5" y2="162.9135" gradientTransform="matrix(1 0 0 -1 0 502)">
				<stop  offset="0" style="stop-color:#FFFFFF"/>
				<stop  offset="1" style="stop-color:#8371D9"/>
			</linearGradient>
			<path class="st1" d="M301.6,200c2.6,0,4.4-2.5,3.6-4.9c-7.6-23.5-29.6-40.6-55.7-40.6s-48.1,17-55.7,40.6c-0.8,2.4,1,4.9,3.6,4.9
				H301.6z"/>

				<linearGradient id="SVGID_00000036230600865825064420000004889275794257052572_" gradientUnits="userSpaceOnUse" x1="249.4" y1="412.9882" x2="249.4" y2="162.9135" gradientTransform="matrix(1 0 0 -1 0 502)">
				<stop  offset="0" style="stop-color:#FFFFFF"/>
				<stop  offset="1" style="stop-color:#8371D9"/>
			</linearGradient>
			<path style="fill:url(#SVGID_00000036230600865825064420000004889275794257052572_);" d="M197.7,227c-2.6,0-4.4,2.5-3.6,5
				c7.9,23,29.7,39.5,55.3,39.5s47.5-16.5,55.3-39.5c0.8-2.4-1-5-3.6-5H197.7z"/>
		</g>

			<linearGradient id="SVGID_00000133495323152357256910000014108405566766066608_" gradientUnits="userSpaceOnUse" x1="248.9713" y1="412.9882" x2="248.9713" y2="162.9135" gradientTransform="matrix(1 0 0 -1 0 502)">
			<stop  offset="0" style="stop-color:#FFFFFF"/>
			<stop  offset="1" style="stop-color:#8371D9"/>
		</linearGradient>
		<path style="fill:url(#SVGID_00000133495323152357256910000014108405566766066608_);" d="M332.2,230c-8,38.9-42.7,68.1-84.2,67.4
			c-44-0.8-80.5-35.9-82.8-79.8c-2.6-48.7,36.2-89,84.3-89c41.1,0,75.4,29.4,82.9,68.4c0.3,1.8,1.9,3.1,3.7,3.1h31.1
			c2.3,0,4.1-2,3.7-4.3c-8.4-59.5-59.4-105.2-121.2-105.3c-66.8-0.1-121.8,54.1-122.7,120.8c-1,68.5,54.3,124.4,122.6,124.4
			c61.5,0,112.4-45.2,121.2-104.3c0.3-2.3-1.4-4.3-3.7-4.3H336C334.1,227,332.5,228.3,332.2,230z"/>

			<linearGradient id="SVGID_00000053519141791087511940000014692452598242448565_" gradientUnits="userSpaceOnUse" x1="249.5" y1="501.5808" x2="249.5" y2="69.4894" gradientTransform="matrix(1 0 0 -1 0 502)">
			<stop  offset="0" style="stop-color:#E860F6"/>
			<stop  offset="6.129205e-02" style="stop-color:#D457E8"/>
			<stop  offset="0.2378" style="stop-color:#9F41C5"/>
			<stop  offset="0.411" style="stop-color:#742EA7"/>
			<stop  offset="0.5772" style="stop-color:#521F90"/>
			<stop  offset="0.7345" style="stop-color:#3A157F"/>
			<stop  offset="0.8794" style="stop-color:#2B0E75"/>
			<stop  offset="1" style="stop-color:#260C72"/>
		</linearGradient>
		<path style="fill:url(#SVGID_00000053519141791087511940000014692452598242448565_);" d="M249.5,6c-114.3,0-207,92.7-207,207
			s92.7,207,207,207s207-92.7,207-207S363.8,6,249.5,6z M249.5,361.7c-82.1,0-148.7-66.6-148.7-148.7S167.4,64.3,249.5,64.3
			S398.2,130.9,398.2,213C398.2,295.2,331.6,361.7,249.5,361.7z"/>
		<path class="st5" d="M252.5,344.7"/>
		<path class="st6" d="M366,141.5"/>
		<path d="M249,213.5"/>
		<path d="M249,213.5"/>
		<path class="st7" d="M249,213.5"/>
	</g>
</g>
</svg>
